<svg width="173" height="173" viewBox="0 0 173 173" fill="none" xmlns="http://www.w3.org/2000/svg">
<rect width="173" height="173" rx="30" fill="#6F3518"/>
<path d="M102.835 61.4404C107.817 58.7183 114.64 58.5214 119.475 61.582L119.611 61.5176C120.72 60.9896 122.033 61.1862 122.928 62.0146L142.257 79.9062C143.25 80.8256 143.497 82.303 142.858 83.5078L131.622 104.707C130.7 106.446 128.394 106.859 126.949 105.544L126.679 105.298L128.181 122.729L128.028 142.948C128.008 145.602 125.938 147.8 123.292 147.978C120.38 148.173 117.927 145.86 117.949 142.94L118.096 123.403L116.498 104.843C113.156 105.008 109.312 104.719 105.857 104.105V123.196L106.867 142.708C107.018 145.622 104.67 148.051 101.753 147.999C99.1017 147.952 96.9361 145.859 96.7989 143.211L95.7539 123.018V99.1494C94.2823 94.7115 94.0771 82.1246 95.8672 73.0146L73.2412 75.6084L63.6446 76.4131C60.7283 76.6574 58.1885 74.5389 57.8418 71.5723C57.4743 68.4275 59.6992 65.5151 62.7793 65.1084L71.9561 63.8965L100.438 61.124C101.28 61.0421 102.094 61.1606 102.835 61.4404ZM126.455 79.6768C126.957 86.1874 126.71 93.1212 125.991 97.6924L131.794 87.5117C132.504 86.2655 132.241 84.6976 131.166 83.7646L126.455 79.6768ZM107.306 19C117.955 19 126.588 27.7397 126.588 38.5205C126.588 49.3012 117.955 58.041 107.306 58.041C96.6569 58.0408 88.0245 49.301 88.0244 38.5205C88.0244 27.7399 96.6568 19.0002 107.306 19Z" fill="#726DFF"/>
<path d="M54.8739 62.9404C60.4519 60.2578 66.0264 59.7091 70.7284 62.4521C72.6479 61.8249 74.8611 62.2842 76.4354 63.8779L90.0194 77.6299C90.4008 78.016 90.8308 78.3486 91.2967 78.6182L103.83 85.8682C106.435 87.3752 107.347 90.7819 105.844 93.3926C104.429 95.8483 101.38 96.71 98.8963 95.3555L84.8993 87.7207C84.4134 87.4556 83.9643 87.1229 83.5653 86.7324L78.9286 82.1943C79.2448 88.3014 78.7379 94.4196 77.7489 97.957C77.7626 98.071 77.7749 98.1863 77.7811 98.3027L79.0135 121.487L78.8612 141.615C78.8409 144.288 76.7557 146.5 74.0897 146.677C71.153 146.871 68.6796 144.537 68.702 141.593L68.8495 122.161L67.8465 103.311C64.2399 103.691 60.0994 103.67 56.369 103.3L55.2518 121.689L55.3993 141.122C55.4216 144.066 52.9473 146.401 50.0106 146.206C47.3447 146.029 45.2594 143.817 45.2391 141.145L45.0868 121.017L46.283 101.337C46.2989 101.076 46.3334 100.82 46.3866 100.572C46.0977 100.341 45.8708 100.1 45.7176 99.8457C44.0107 97.0065 43.7173 85.9599 45.6688 76.8271L39.744 80.7461C39.2073 81.101 38.6215 81.3671 38.0086 81.5342L21.1493 86.1289C18.4191 86.873 15.6935 85.1783 15.1102 82.373C14.5515 79.6857 16.1697 76.9613 18.7743 76.2031L34.2664 71.6934C34.8441 71.5252 35.3961 71.2685 35.9041 70.9326L48.6912 62.4766C50.7339 61.1258 53.2551 61.4252 54.8739 62.9404ZM62.9569 19C73.251 19 81.5965 27.7397 81.5965 38.5205C81.5964 49.3012 73.2509 58.041 62.9569 58.041C52.663 58.0409 44.3183 49.3011 44.3182 38.5205C44.3182 27.7398 52.6629 19.0001 62.9569 19Z" fill="#FFB700"/>
</svg>
