<svg width="100" height="100" viewBox="0 0 100 100" fill="none" xmlns="http://www.w3.org/2000/svg">
<g clip-path="url(#clip0_6_2)">
<circle cx="72" cy="16" r="15" fill="#6493FF"/>
<path d="M37.309 36.4379C34.9383 36.7472 33.233 38.9697 33.5181 41.3788C33.7887 43.6664 35.7641 45.306 38.0241 45.1189L45.5 44.5L67.3653 42.0247C69.8568 41.7426 71.6201 39.3471 71.1784 36.8442C70.7929 34.6595 68.8458 33.1591 66.6681 33.3685L44.5 35.5L37.309 36.4379Z" fill="#6493FF"/>
<path d="M69.3191 52.3967C71.3337 53.5479 72.0327 56.159 70.8633 58.1648C69.7629 60.0522 67.3984 60.7191 65.4774 59.6841L54.7307 53.8937C54.2459 53.6325 53.798 53.3048 53.3997 52.9198L41.9318 41.8341C40.275 40.2325 40.0874 37.616 41.5004 35.8177C43.1065 33.7735 46.1074 33.6074 47.9602 35.4602L58.4264 45.9264C58.8071 46.3071 59.2356 46.6346 59.7004 46.9003L69.3191 52.3967Z" fill="#FFD05A"/>
<path d="M65.8553 35.6131C70.1881 31.1028 79.3182 30.498 83.668 35.6131C88.0179 40.7283 87.686 60.5193 85.7058 64.6753C83.7257 68.8313 65.2953 66.8178 63.3152 63.3012C61.335 59.7845 61.5225 40.1235 65.8553 35.6131Z" fill="#6493FF"/>
<path d="M78.0187 40.016C76.3692 38.6021 76.7388 35.9465 78.7145 35.0167L81.1827 33.8552C82.2827 33.3375 83.5821 33.5322 84.4749 34.3485L98.7842 47.4312C99.7935 48.3541 100.045 49.8484 99.3944 51.0605L91.3151 66.1172C90.3919 67.8379 88.106 68.2454 86.6629 66.9466L86.2983 66.6184C85.2495 65.6745 85.0068 64.1215 85.7161 62.8922L90.7537 54.1602C91.4766 52.9073 91.2093 51.3223 90.1175 50.3864L78.0187 40.016Z" fill="#6493FF"/>
<path d="M78.8502 63.518C78.6583 61.3161 80.3192 59.3797 82.5249 59.2338C84.6507 59.0932 86.4925 60.6726 86.6775 62.7947L88.2389 80.7079L88.1211 96.205C88.1054 98.2675 86.4964 99.9739 84.439 100.11C82.1723 100.26 80.2628 98.4581 80.2801 96.1857L80.3939 81.2267L78.8502 63.518Z" fill="#6493FF"/>
<path d="M70.8733 62.5047C70.8733 60.3589 69.1522 58.6074 67.0067 58.5698C64.8118 58.5315 63.0135 60.2986 63.0135 62.4939L63.0136 80.9303L63.8241 96.4059C63.9319 98.4649 65.6155 100.091 67.6767 100.127C69.9476 100.167 71.7745 98.2748 71.6557 96.0065L70.8733 81.0678L70.8733 62.5047Z" fill="#6493FF"/>
<ellipse cx="37.5" cy="16" rx="14.5" ry="15" fill="#FFD05A"/>
<path d="M28.9053 36.0128C35.15 32.2316 41.6393 31.5473 46.3308 36.6507C51.0222 41.754 50.602 58.9779 48.4663 63.1244C46.3307 67.2709 26.2245 66.633 24.0888 63.1244C21.9532 59.6158 22.6607 39.7939 28.9053 36.0128Z" fill="#FFD05A"/>
<path d="M41.1239 62.4439C41.0069 60.2706 42.6643 58.4029 44.836 58.2608C47.0314 58.1171 48.9165 59.7901 49.0348 61.9871L49.9912 79.7543L49.8727 95.1802C49.8567 97.2578 48.2364 98.9748 46.1637 99.1105C43.878 99.2601 41.9516 97.4412 41.9692 95.15L42.0836 80.2719L41.1239 62.4439Z" fill="#FFD05A"/>
<path d="M32.4332 64.8358C32.5676 62.6517 30.9064 60.7652 28.7228 60.6222C26.5391 60.4793 24.66 62.1341 24.5256 64.3182L23.5979 79.3924L23.7164 94.8183C23.7324 96.8958 25.3527 98.6129 27.4254 98.7485C29.7111 98.8981 31.6375 97.0793 31.6199 94.7881L31.5055 79.91L32.4332 64.8358Z" fill="#FFD05A"/>
<path d="M3.08844 44.9681C1.08311 45.5448 -0.157507 47.6271 0.276333 49.6881C0.730864 51.8474 2.84343 53.1583 4.95326 52.5903L17.892 49.1069C18.501 48.943 19.0831 48.6819 19.6165 48.3335L30.583 41.1701C32.2161 40.1034 32.8922 38.0086 32.1867 36.2017C31.2826 33.886 28.5344 33.0161 26.4414 34.3832L16.6198 40.7987C16.115 41.1285 15.5664 41.3801 14.9925 41.5451L3.08844 44.9681Z" fill="#FFD05A"/>
</g>
<defs>
<clipPath id="clip0_6_2">
<rect width="100" height="100" fill="white"/>
</clipPath>
</defs>
</svg>
