<svg width="389" height="810" viewBox="0 0 389 810" fill="none" xmlns="http://www.w3.org/2000/svg">
<rect width="389" height="810" fill="#B68282"/>
<rect width="389" height="810" fill="white"/>
<rect x="28" y="109" width="347" height="534" rx="18" fill="#D9D9D9"/>
<rect x="29" y="655" width="347" height="110" rx="18" fill="#D9D9D9"/>
<rect x="28" y="45" width="347" height="52" rx="18" fill="#D9D9D9"/>
<rect x="43" y="502" width="318" height="126" rx="25" fill="#AB7091"/>
<line x1="53" y1="708.5" x2="347" y2="708.5" stroke="#ABABAB" stroke-width="3"/>
<line x1="56" y1="698.5" x2="350" y2="698.5" stroke="#0DC745" stroke-width="3"/>
<path d="M61 740L90 691L104 724L125 699L137 724L168 681L184 724L203 691L232 686L261 681L282 686H299L317 699L335 704L346 734" stroke="#9085DE" stroke-width="4"/>
<rect x="58" y="56" width="61" height="20" rx="9" fill="#C34B4B"/>
<rect x="140" y="56" width="61" height="20" rx="9" fill="#65C34B"/>
<rect x="140" y="56" width="61" height="20" rx="9" fill="#65C34B"/>
<rect x="222" y="56" width="61" height="20" rx="9" fill="#514BC3"/>
<rect x="300" y="56" width="61" height="20" rx="9" fill="#E4943F"/>
<line x1="204.5" y1="663.017" x2="203.5" y2="749.017" stroke="white" stroke-width="3"/>
</svg>
