<svg width="335" height="319" viewBox="0 0 335 319" fill="none" xmlns="http://www.w3.org/2000/svg">
<rect x="6.80055" y="138.638" width="138.728" height="187.283" transform="rotate(-24.477 6.80055 138.638)" fill="#7D7D52"/>
<rect width="127.63" height="187.283" transform="matrix(-0.910128 0.414328 0.414328 0.910128 249.22 28.2788)" fill="#3F6778"/>
<path d="M14.3567 101.664C71.0512 62.1364 133.061 81.1593 133.061 81.1593L210.657 251.611C210.657 251.611 145.67 246.137 94.8272 278.429C77.0088 239.288 35.0492 147.118 14.3567 101.664Z" fill="#ECECD4"/>
<path d="M223.274 10.808C167.27 22.5541 127.834 83.0706 127.834 83.0706L205.607 253.91C205.607 253.91 258.444 206.405 306.497 193.696C288.638 154.466 244.014 56.3653 223.274 10.808Z" fill="#83B7CC"/>
</svg>
