<svg width="225" height="202" viewBox="0 0 225 202" fill="none" xmlns="http://www.w3.org/2000/svg">
<path d="M86.0465 75.3265C86.0465 97.2059 66.7843 114.943 43.0233 114.943C19.2622 114.943 0 97.2059 0 75.3265C0 53.4471 19.2622 35.7104 43.0233 35.7104C66.7843 35.7104 86.0465 53.4471 86.0465 75.3265Z" fill="#455F9E"/>
<path d="M166.86 59.7033C166.86 92.6765 141.481 119.407 110.174 119.407C78.8676 119.407 53.4884 92.6765 53.4884 59.7033C53.4884 26.7301 78.8676 0 110.174 0C141.481 0 166.86 26.7301 166.86 59.7033Z" fill="#455F9E"/>
<path d="M225 80.6273C225 105.434 201.833 125.544 173.256 125.544C144.678 125.544 121.512 105.434 121.512 80.6273C121.512 55.8204 144.678 35.7104 173.256 35.7104C201.833 35.7104 225 55.8204 225 80.6273Z" fill="#455F9E"/>
<path d="M57.3094 126.625L69.9385 127.937L37.4856 200.184L24.8565 198.872L57.3094 126.625Z" fill="#455F9E"/>
<path d="M94.5078 127.521L107.5 128.5L75.0471 200.747L62.0548 199.768L94.5078 127.521Z" fill="#455F9E"/>
<path d="M131.5 128.5L145.117 129.753L112.665 202L99.0471 200.747L131.5 128.5Z" fill="#455F9E"/>
</svg>
