<svg width="346" height="213" viewBox="0 0 346 213" fill="none" xmlns="http://www.w3.org/2000/svg">
<path d="M84.0682 78.3018C84.0682 78.3018 118.278 75.6708 136.877 75.5068C143.895 50.9458 139.859 24.6828 128.105 14.1038C110.562 -1.6862 64.9472 -6.0722 34.2462 10.5948C3.54421 27.2608 0.912211 57.9628 0.0352118 91.2968C-0.841795 124.63 14.7702 159.005 34.9452 171.285C54.5402 183.212 112.172 176.984 125.296 172.162C159.065 159.757 156.175 93.9278 156.175 93.9278L78.9832 96.5598L79.8602 114.104L107.752 112.512C107.752 112.512 112.138 124.792 103.366 141.46C93.5402 142.5 71.1562 146.846 56.8752 139.705C46.3492 134.442 37.1882 111.135 36.7002 94.9688C35.6452 60.0448 42.8402 49.3548 57.9302 45.6818C86.9592 38.6178 84.0682 78.3018 84.0682 78.3018Z" fill="white"/>
<path d="M84.0682 78.3018C84.0682 78.3018 118.278 75.6708 136.877 75.5068C143.895 50.9458 139.859 24.6828 128.105 14.1038C110.562 -1.6862 64.9472 -6.0722 34.2462 10.5948C3.54421 27.2608 0.912211 57.9628 0.0352118 91.2968C-0.841795 124.63 14.7702 159.005 34.9452 171.285C54.5402 183.212 112.172 176.984 125.296 172.162C159.065 159.757 156.175 93.9278 156.175 93.9278L78.9832 96.5598L79.8602 114.104L107.752 112.512C107.752 112.512 112.138 124.792 103.366 141.46C93.5402 142.5 71.1562 146.846 56.8752 139.705C46.3492 134.442 37.1882 111.135 36.7002 94.9688C35.6452 60.0448 42.8402 49.3548 57.9302 45.6818C86.9592 38.6178 84.0682 78.3018 84.0682 78.3018Z" fill="white"/>
<path d="M157.998 72.2619L184.16 67.7449C184.16 67.7449 186.588 79.4129 187.587 85.8789C193.119 68.6809 207.934 62.3349 220.807 61.9479C240.58 61.3519 247.776 78.4669 248.518 97.7509C237.999 98.1559 224.076 101.325 224.076 101.325C224.076 101.325 224.264 86.0979 212.984 86.8279C205.281 87.3249 196.042 91.0579 190.699 100.852C192.823 110.426 202.033 153.729 202.033 153.729L171.01 159.546L157.998 72.2619Z" fill="white"/>
<path d="M157.998 72.2619L184.16 67.7449C184.16 67.7449 186.588 79.4129 187.587 85.8789C193.119 68.6809 207.934 62.3349 220.807 61.9479C240.58 61.3519 247.776 78.4669 248.518 97.7509C237.999 98.1559 224.076 101.325 224.076 101.325C224.076 101.325 224.264 86.0979 212.984 86.8279C205.281 87.3249 196.042 91.0579 190.699 100.852C192.823 110.426 202.033 153.729 202.033 153.729L171.01 159.546L157.998 72.2619Z" fill="white"/>
<path d="M216.014 102.794L237.248 104.388C237.248 104.388 236.912 113.786 236.456 118.927C244.045 106.834 256.791 104.837 266.889 107.026C282.399 110.388 284.738 124.875 281.637 139.776C273.368 138.055 261.922 137.792 261.922 137.792C261.922 137.792 264.973 126.176 256.051 124.557C249.958 123.45 242.052 124.523 236.023 130.986C235.85 138.723 234.759 173.639 234.759 173.639L209.493 172.103L216.014 102.794Z" fill="white"/>
<path d="M216.014 102.794L237.248 104.388C237.248 104.388 236.912 113.786 236.456 118.927C244.045 106.834 256.791 104.837 266.889 107.026C282.399 110.388 284.738 124.875 281.637 139.776C273.368 138.055 261.922 137.792 261.922 137.792C261.922 137.792 264.973 126.176 256.051 124.557C249.958 123.45 242.052 124.523 236.023 130.986C235.85 138.723 234.759 173.639 234.759 173.639L209.493 172.103L216.014 102.794Z" fill="white"/>
<path d="M305.626 42.6578L295.488 111.13L320.449 116.37L342.018 49.5058L305.626 42.6578Z" fill="white"/>
<path d="M319.747 147.925C317.731 156.67 308.681 162.051 299.533 159.942C290.383 157.834 284.601 149.035 286.616 140.289C288.631 131.544 297.682 126.163 306.832 128.273C315.979 130.38 321.764 139.179 319.747 147.925Z" fill="#C42525"/>
<path d="M345.281 212.139H4.78061V185.639H345.281V212.139Z" fill="white"/>
<path d="M20.5533 196.105C20.4415 195.716 20.2843 195.372 20.0819 195.074C19.8795 194.77 19.6318 194.515 19.3388 194.307C19.0512 194.094 18.721 193.931 18.3481 193.819C17.9805 193.708 17.573 193.652 17.1256 193.652C16.2893 193.652 15.5542 193.859 14.9203 194.275C14.2918 194.69 13.8017 195.295 13.4502 196.089C13.0986 196.877 12.9228 197.841 12.9228 198.981C12.9228 200.121 13.096 201.09 13.4422 201.889C13.7884 202.688 14.2785 203.298 14.9124 203.719C15.5462 204.135 16.2946 204.342 17.1576 204.342C17.9406 204.342 18.6091 204.204 19.1631 203.927C19.7224 203.644 20.1485 203.248 20.4415 202.736C20.7398 202.225 20.8889 201.62 20.8889 200.923L21.592 201.026H17.3733V198.422H24.2208V200.483C24.2208 201.921 23.9172 203.157 23.3099 204.19C22.7027 205.219 21.8664 206.012 20.801 206.571C19.7357 207.125 18.5159 207.402 17.1416 207.402C15.6075 207.402 14.2598 207.064 13.0986 206.388C11.9374 205.706 11.0319 204.739 10.382 203.487C9.73746 202.23 9.4152 200.739 9.4152 199.013C9.4152 197.687 9.60696 196.504 9.99048 195.465C10.3793 194.421 10.9227 193.537 11.6205 192.813C12.3183 192.088 13.1306 191.537 14.0574 191.159C14.9843 190.78 15.9884 190.591 17.0697 190.591C17.9965 190.591 18.8594 190.727 19.6584 190.999C20.4575 191.265 21.1659 191.643 21.7838 192.133C22.407 192.624 22.9157 193.207 23.3099 193.883C23.7041 194.554 23.9571 195.295 24.069 196.105H20.5533ZM34.8196 207.179V194.906H38.1195V197.047H38.2473C38.471 196.286 38.8466 195.71 39.3739 195.321C39.9013 194.927 40.5085 194.73 41.1956 194.73C41.3661 194.73 41.5499 194.741 41.747 194.762C41.9441 194.783 42.1172 194.813 42.2663 194.85V197.87C42.1065 197.822 41.8855 197.78 41.6031 197.742C41.3208 197.705 41.0625 197.687 40.8281 197.687C40.3274 197.687 39.88 197.796 39.4858 198.014C39.0969 198.227 38.788 198.526 38.5589 198.909C38.3352 199.293 38.2233 199.735 38.2233 200.235V207.179H34.8196ZM55.5897 207.41C54.8067 207.41 54.1089 207.275 53.4963 207.003C52.8838 206.726 52.399 206.318 52.0422 205.78C51.6906 205.237 51.5148 204.561 51.5148 203.751C51.5148 203.069 51.64 202.497 51.8903 202.033C52.1407 201.57 52.4816 201.197 52.9131 200.915C53.3445 200.632 53.8346 200.419 54.3832 200.275C54.9372 200.132 55.5178 200.03 56.1251 199.972C56.8388 199.897 57.4141 199.828 57.8509 199.764C58.2877 199.695 58.6047 199.594 58.8017 199.46C58.9988 199.327 59.0974 199.13 59.0974 198.869V198.821C59.0974 198.315 58.9376 197.924 58.618 197.647C58.3037 197.37 57.8562 197.231 57.2756 197.231C56.6631 197.231 56.1757 197.367 55.8135 197.639C55.4512 197.905 55.2115 198.241 55.0944 198.645L51.9463 198.39C52.1061 197.644 52.4203 196.999 52.8891 196.456C53.3578 195.907 53.9624 195.487 54.7028 195.194C55.4486 194.895 56.3115 194.746 57.2916 194.746C57.9734 194.746 58.626 194.826 59.2492 194.986C59.8777 195.146 60.4344 195.393 60.9191 195.729C61.4092 196.065 61.7953 196.496 62.0777 197.023C62.36 197.545 62.5011 198.171 62.5011 198.901V207.179H59.2732V205.477H59.1773C58.9802 205.86 58.7165 206.199 58.3863 206.492C58.056 206.779 57.6592 207.006 57.1957 207.171C56.7323 207.331 56.197 207.41 55.5897 207.41ZM56.5645 205.061C57.0652 205.061 57.5073 204.963 57.8909 204.766C58.2744 204.563 58.5754 204.292 58.7937 203.951C59.0121 203.61 59.1213 203.224 59.1213 202.792V201.49C59.0148 201.559 58.8683 201.623 58.6819 201.682C58.5008 201.735 58.2957 201.785 58.0667 201.833C57.8376 201.876 57.6086 201.916 57.3795 201.953C57.1505 201.985 56.9427 202.015 56.7563 202.041C56.3568 202.1 56.0079 202.193 55.7096 202.321C55.4113 202.449 55.1796 202.622 55.0145 202.84C54.8493 203.053 54.7668 203.32 54.7668 203.639C54.7668 204.103 54.9346 204.457 55.2701 204.702C55.611 204.942 56.0425 205.061 56.5645 205.061ZM79.8056 194.906V197.463H72.231V194.906H79.8056ZM73.9649 207.179V194.019C73.9649 193.13 74.138 192.392 74.4842 191.806C74.8358 191.22 75.3152 190.78 75.9224 190.488C76.5297 190.195 77.2195 190.048 77.9919 190.048C78.5139 190.048 78.9906 190.088 79.4221 190.168C79.8589 190.248 80.1838 190.32 80.3969 190.384L79.7896 192.94C79.6565 192.898 79.4913 192.858 79.2942 192.821C79.1025 192.783 78.9054 192.765 78.703 192.765C78.2023 192.765 77.8534 192.882 77.6563 193.116C77.4592 193.345 77.3606 193.668 77.3606 194.083V207.179H73.9649ZM89.949 207.179V194.906H93.3527V207.179H89.949ZM91.6588 193.324C91.1528 193.324 90.7187 193.156 90.3565 192.821C89.9996 192.48 89.8211 192.072 89.8211 191.598C89.8211 191.129 89.9996 190.727 90.3565 190.392C90.7187 190.051 91.1528 189.88 91.6588 189.88C92.1649 189.88 92.5963 190.051 92.9532 190.392C93.3155 190.727 93.4966 191.129 93.4966 191.598C93.4966 192.072 93.3155 192.48 92.9532 192.821C92.5963 193.156 92.1649 193.324 91.6588 193.324ZM114.355 198.406L111.238 198.597C111.185 198.331 111.071 198.091 110.895 197.878C110.719 197.66 110.487 197.487 110.2 197.359C109.917 197.226 109.579 197.159 109.185 197.159C108.658 197.159 108.213 197.271 107.851 197.495C107.488 197.713 107.307 198.006 107.307 198.374C107.307 198.667 107.425 198.914 107.659 199.117C107.893 199.319 108.295 199.482 108.865 199.604L111.087 200.052C112.28 200.297 113.169 200.691 113.755 201.234C114.341 201.777 114.634 202.491 114.634 203.375C114.634 204.18 114.397 204.886 113.923 205.493C113.454 206.1 112.81 206.574 111.99 206.915C111.175 207.251 110.234 207.418 109.169 207.418C107.544 207.418 106.25 207.08 105.286 206.404C104.327 205.722 103.765 204.795 103.6 203.623L106.948 203.447C107.049 203.943 107.294 204.321 107.683 204.582C108.072 204.838 108.57 204.965 109.177 204.965C109.774 204.965 110.253 204.851 110.615 204.622C110.983 204.388 111.169 204.087 111.175 203.719C111.169 203.41 111.039 203.157 110.783 202.96C110.527 202.758 110.133 202.603 109.601 202.497L107.475 202.073C106.277 201.833 105.384 201.418 104.798 200.827C104.218 200.235 103.928 199.482 103.928 198.565C103.928 197.777 104.141 197.098 104.567 196.528C104.998 195.958 105.603 195.519 106.381 195.21C107.164 194.901 108.08 194.746 109.129 194.746C110.679 194.746 111.899 195.074 112.789 195.729C113.683 196.384 114.205 197.276 114.355 198.406ZM127.926 203.647L127.934 199.564H128.429L132.36 194.906H136.267L130.986 201.074H130.179L127.926 203.647ZM124.842 207.179V190.815H128.245V207.179H124.842ZM132.512 207.179L128.901 201.833L131.17 199.428L136.499 207.179H132.512ZM149.085 203.647L149.093 199.564H149.589L153.52 194.906H157.427L152.146 201.074H151.339L149.085 203.647ZM146.001 207.179V190.815H149.405V207.179H146.001ZM153.672 207.179L150.06 201.833L152.329 199.428L157.659 207.179H153.672ZM172.706 207.418C171.465 207.418 170.392 207.155 169.486 206.627C168.586 206.095 167.891 205.354 167.401 204.406C166.911 203.453 166.666 202.347 166.666 201.09C166.666 199.823 166.911 198.715 167.401 197.766C167.891 196.813 168.586 196.073 169.486 195.545C170.392 195.013 171.465 194.746 172.706 194.746C173.947 194.746 175.018 195.013 175.918 195.545C176.824 196.073 177.521 196.813 178.011 197.766C178.501 198.715 178.746 199.823 178.746 201.09C178.746 202.347 178.501 203.453 178.011 204.406C177.521 205.354 176.824 206.095 175.918 206.627C175.018 207.155 173.947 207.418 172.706 207.418ZM172.722 204.782C173.287 204.782 173.758 204.622 174.136 204.302C174.514 203.977 174.799 203.535 174.991 202.976C175.188 202.417 175.287 201.78 175.287 201.066C175.287 200.353 175.188 199.716 174.991 199.157C174.799 198.597 174.514 198.155 174.136 197.83C173.758 197.505 173.287 197.343 172.722 197.343C172.152 197.343 171.673 197.505 171.284 197.83C170.9 198.155 170.61 198.597 170.413 199.157C170.221 199.716 170.125 200.353 170.125 201.066C170.125 201.78 170.221 202.417 170.413 202.976C170.61 203.535 170.9 203.977 171.284 204.302C171.673 204.622 172.152 204.782 172.722 204.782ZM194.569 207.418C193.328 207.418 192.254 207.155 191.349 206.627C190.449 206.095 189.753 205.354 189.263 204.406C188.773 203.453 188.528 202.347 188.528 201.09C188.528 199.823 188.773 198.715 189.263 197.766C189.753 196.813 190.449 196.073 191.349 195.545C192.254 195.013 193.328 194.746 194.569 194.746C195.81 194.746 196.881 195.013 197.781 195.545C198.686 196.073 199.384 196.813 199.874 197.766C200.364 198.715 200.609 199.823 200.609 201.09C200.609 202.347 200.364 203.453 199.874 204.406C199.384 205.354 198.686 206.095 197.781 206.627C196.881 207.155 195.81 207.418 194.569 207.418ZM194.585 204.782C195.149 204.782 195.621 204.622 195.999 204.302C196.377 203.977 196.662 203.535 196.854 202.976C197.051 202.417 197.15 201.78 197.15 201.066C197.15 200.353 197.051 199.716 196.854 199.157C196.662 198.597 196.377 198.155 195.999 197.83C195.621 197.505 195.149 197.343 194.585 197.343C194.015 197.343 193.535 197.505 193.147 197.83C192.763 198.155 192.473 198.597 192.276 199.157C192.084 199.716 191.988 200.353 191.988 201.066C191.988 201.78 192.084 202.417 192.276 202.976C192.473 203.535 192.763 203.977 193.147 204.302C193.535 204.622 194.015 204.782 194.585 204.782ZM210.886 211.781V194.906H214.242V196.967H214.394C214.543 196.637 214.759 196.302 215.041 195.961C215.329 195.614 215.702 195.327 216.16 195.098C216.623 194.863 217.199 194.746 217.886 194.746C218.781 194.746 219.606 194.981 220.363 195.449C221.119 195.913 221.724 196.613 222.176 197.551C222.629 198.483 222.856 199.652 222.856 201.058C222.856 202.427 222.635 203.583 222.192 204.526C221.756 205.464 221.159 206.175 220.403 206.659C219.652 207.139 218.81 207.378 217.878 207.378C217.217 207.378 216.655 207.269 216.192 207.051C215.734 206.833 215.358 206.558 215.065 206.228C214.772 205.892 214.549 205.554 214.394 205.213H214.29V211.781H210.886ZM214.218 201.042C214.218 201.772 214.32 202.409 214.522 202.952C214.724 203.495 215.017 203.919 215.401 204.222C215.784 204.521 216.25 204.67 216.799 204.67C217.353 204.67 217.822 204.518 218.205 204.214C218.589 203.905 218.879 203.479 219.076 202.936C219.279 202.387 219.38 201.756 219.38 201.042C219.38 200.334 219.281 199.711 219.084 199.173C218.887 198.635 218.597 198.214 218.213 197.91C217.83 197.607 217.358 197.455 216.799 197.455C216.245 197.455 215.776 197.601 215.393 197.894C215.015 198.187 214.724 198.603 214.522 199.141C214.32 199.679 214.218 200.313 214.218 201.042ZM238.782 207.418C237.519 207.418 236.433 207.163 235.522 206.651C234.616 206.135 233.918 205.405 233.428 204.462C232.938 203.514 232.693 202.393 232.693 201.098C232.693 199.836 232.938 198.728 233.428 197.774C233.918 196.821 234.608 196.078 235.498 195.545C236.393 195.013 237.442 194.746 238.646 194.746C239.456 194.746 240.209 194.877 240.907 195.138C241.61 195.393 242.223 195.78 242.745 196.296C243.272 196.813 243.682 197.463 243.975 198.246C244.268 199.024 244.415 199.934 244.415 200.978V201.913H234.052V199.804H241.211C241.211 199.314 241.104 198.88 240.891 198.502C240.678 198.123 240.382 197.828 240.004 197.615C239.631 197.396 239.197 197.287 238.702 197.287C238.185 197.287 237.727 197.407 237.328 197.647C236.933 197.881 236.624 198.198 236.401 198.597C236.177 198.992 236.062 199.431 236.057 199.916V201.921C236.057 202.529 236.169 203.053 236.393 203.495C236.622 203.937 236.944 204.278 237.36 204.518C237.775 204.758 238.268 204.878 238.838 204.878C239.216 204.878 239.562 204.824 239.876 204.718C240.191 204.611 240.46 204.451 240.683 204.238C240.907 204.025 241.078 203.764 241.195 203.455L244.343 203.663C244.183 204.42 243.855 205.08 243.36 205.645C242.87 206.204 242.236 206.641 241.458 206.955C240.686 207.264 239.794 207.418 238.782 207.418ZM254.7 207.179V194.906H258V197.047H258.128C258.351 196.286 258.727 195.71 259.254 195.321C259.782 194.927 260.389 194.73 261.076 194.73C261.246 194.73 261.43 194.741 261.627 194.762C261.824 194.783 261.998 194.813 262.147 194.85V197.87C261.987 197.822 261.766 197.78 261.484 197.742C261.201 197.705 260.943 197.687 260.708 197.687C260.208 197.687 259.76 197.796 259.366 198.014C258.977 198.227 258.668 198.526 258.439 198.909C258.216 199.293 258.104 199.735 258.104 200.235V207.179H254.7ZM275.47 207.41C274.687 207.41 273.989 207.275 273.377 207.003C272.764 206.726 272.279 206.318 271.923 205.78C271.571 205.237 271.395 204.561 271.395 203.751C271.395 203.069 271.52 202.497 271.771 202.033C272.021 201.57 272.362 201.197 272.793 200.915C273.225 200.632 273.715 200.419 274.264 200.275C274.818 200.132 275.398 200.03 276.005 199.972C276.719 199.897 277.295 199.828 277.731 199.764C278.168 199.695 278.485 199.594 278.682 199.46C278.879 199.327 278.978 199.13 278.978 198.869V198.821C278.978 198.315 278.818 197.924 278.498 197.647C278.184 197.37 277.737 197.231 277.156 197.231C276.543 197.231 276.056 197.367 275.694 197.639C275.332 197.905 275.092 198.241 274.975 198.645L271.827 198.39C271.986 197.644 272.301 196.999 272.769 196.456C273.238 195.907 273.843 195.487 274.583 195.194C275.329 194.895 276.192 194.746 277.172 194.746C277.854 194.746 278.506 194.826 279.13 194.986C279.758 195.146 280.315 195.393 280.799 195.729C281.29 196.065 281.676 196.496 281.958 197.023C282.24 197.545 282.382 198.171 282.382 198.901V207.179H279.154V205.477H279.058C278.861 205.86 278.597 206.199 278.267 206.492C277.936 206.779 277.54 207.006 277.076 207.171C276.613 207.331 276.077 207.41 275.47 207.41ZM276.445 205.061C276.946 205.061 277.388 204.963 277.771 204.766C278.155 204.563 278.456 204.292 278.674 203.951C278.893 203.61 279.002 203.224 279.002 202.792V201.49C278.895 201.559 278.749 201.623 278.562 201.682C278.381 201.735 278.176 201.785 277.947 201.833C277.718 201.876 277.489 201.916 277.26 201.953C277.031 201.985 276.823 202.015 276.637 202.041C276.237 202.1 275.888 202.193 275.59 202.321C275.292 202.449 275.06 202.622 274.895 202.84C274.73 203.053 274.647 203.32 274.647 203.639C274.647 204.103 274.815 204.457 275.151 204.702C275.491 204.942 275.923 205.061 276.445 205.061ZM299.614 194.906V197.463H292.223V194.906H299.614ZM293.901 191.966H297.305V203.407C297.305 203.722 297.353 203.967 297.449 204.143C297.545 204.313 297.678 204.433 297.848 204.502C298.024 204.571 298.226 204.606 298.456 204.606C298.615 204.606 298.775 204.593 298.935 204.566C299.095 204.534 299.217 204.51 299.302 204.494L299.838 207.027C299.667 207.08 299.428 207.141 299.119 207.211C298.81 207.285 298.434 207.331 297.992 207.347C297.172 207.378 296.453 207.269 295.835 207.019C295.222 206.769 294.745 206.38 294.405 205.852C294.064 205.325 293.896 204.659 293.901 203.855V191.966ZM309.895 207.179V194.906H313.299V207.179H309.895ZM311.605 193.324C311.099 193.324 310.665 193.156 310.303 192.821C309.946 192.48 309.767 192.072 309.767 191.598C309.767 191.129 309.946 190.727 310.303 190.392C310.665 190.051 311.099 189.88 311.605 189.88C312.111 189.88 312.543 190.051 312.9 190.392C313.262 190.727 313.443 191.129 313.443 191.598C313.443 192.072 313.262 192.48 312.9 192.821C312.543 193.156 312.111 193.324 311.605 193.324ZM335.531 194.906L331.241 207.179H327.405L323.115 194.906H326.71L329.259 203.687H329.387L331.928 194.906H335.531Z" fill="black"/>
</svg>
