<svg width="887" height="237" viewBox="0 0 887 237" fill="none" xmlns="http://www.w3.org/2000/svg">
<path fill-rule="evenodd" clip-rule="evenodd" d="M762.601 87.2761C762.617 87.221 768.679 67.41 787.69 65.6901C806.726 63.968 811.178 82.8815 811.178 82.8815C811.194 82.8512 825.378 55.6439 855.304 59.5729C885.246 63.5048 886.999 226.135 886.999 226.135L849.582 229.52C849.582 229.52 848.026 102.688 836.477 97.2936C824.927 91.8997 817.927 107.02 817.927 107.02L828.283 222.988L793.491 226.135C793.491 226.135 794.053 126.888 783.537 116.771C773.031 106.666 765.149 128.854 765.133 128.899L771.172 228.154L735.724 231.361L724.997 55.0632L760.445 51.8561L762.601 87.2761ZM634.604 68.0319C673.89 45.3395 725.35 86.7673 719.817 141.034L629.07 157.831C647.33 233.305 708.196 166.875 708.196 166.875C713.187 175.195 725.319 199.76 725.35 199.823C701.557 223.726 688.83 233.284 658.95 230.832C634.762 228.847 618.31 210.159 608.421 184.353C598.532 158.547 595.317 90.7247 634.604 68.0319ZM688.83 126.174C688.812 126.062 683.251 91.0919 655.076 91.9352C626.911 92.7788 631.266 136.987 631.283 137.157L688.83 126.174Z" fill="#3368AE"/>
<path d="M527.28 5.48246L491.832 8.68938L498.872 111.394L501.099 235.937L536.547 232.73L530.508 133.475C530.508 133.475 548.35 104.278 558.866 114.394C569.383 124.509 558.866 230.711 558.866 230.711L593.658 227.563C593.658 227.563 592.798 118.935 593.658 97.3935C594.519 75.8516 572.101 68.5432 553.064 70.2654C534.027 71.9877 527.975 91.8516 527.975 91.8516L527.28 5.48246Z" fill="#3368AE"/>
<path fill-rule="evenodd" clip-rule="evenodd" d="M229.959 60.3457C270.678 37.2626 321.961 82.808 314.752 140.452L221.724 155.833C238.167 236.723 302.156 167.653 302.156 167.653C307.002 176.648 318.657 203.125 318.697 203.218C293.743 228.019 280.489 237.847 250.088 234.41C225.479 231.627 209.24 211.269 199.901 183.511C190.561 155.753 189.24 83.4291 229.959 60.3457ZM283.58 123.77C283.563 123.634 278.898 86.2501 250.147 86.3698C221.394 86.4898 224.567 133.714 224.578 133.876L283.58 123.77Z" fill="#E6B94F"/>
<path d="M87.2451 91.9133L131.425 18.6897H183.03L186 226.69H131.425V124.812L87.2451 168.853L49.377 129.587V224.036L0.742188 226.69L0 18.6897H49.377L87.2451 91.9133Z" fill="#E6B94F"/>
<path d="M325 24.6894L403.5 11.6894L477.5 3.18939L484.5 58.1894H443.5C443.5 58.1894 441 97.6894 441 147.189C441 196.689 454.5 231.689 454.5 231.689H403.5C403.5 231.689 399.5 173.189 399.5 147.189C399.5 121.189 403.5 58.1894 403.5 58.1894L339.5 70.6894L325 24.6894Z" fill="#3368AE" stroke="#3368AE"/>
<path d="M356.955 103.393C364.29 102.716 369.745 103.864 373.32 106.835C376.997 109.683 379.023 113.138 379.397 117.201C379.772 121.264 379.546 124.983 378.719 128.36C377.881 131.624 376.879 134.334 375.712 136.491C374.658 138.636 372.738 141.26 369.951 144.363C367.266 147.342 365.186 149.468 363.71 150.742C362.347 152.006 359.877 154.226 356.3 157.401C363.957 167.621 375.13 178.94 389.818 191.357C392.389 187.137 394.59 183.235 396.422 179.652C399.799 180.479 402.381 181.948 404.169 184.059L404.94 185.012C402.104 190.054 399.534 194.274 397.23 197.674C402.653 202.182 407.989 206.356 413.237 210.197L413.44 212.398L403.401 222.03C397.876 217.645 392.878 213.44 388.41 209.413C383.553 214.755 378.648 218.337 373.694 220.159C368.741 221.981 361.975 223.288 353.398 224.079C344.934 224.859 337.678 223.309 331.63 219.427C325.694 215.536 322.336 209.358 321.556 200.894C320.775 192.43 322.192 184.958 325.806 178.479C329.409 171.887 334.67 165.37 341.588 158.928C335.604 149.578 332.269 141.178 331.583 133.73C330.886 126.169 333.109 119.419 338.252 113.482C343.385 107.432 349.619 104.069 356.955 103.393ZM335.323 194.674C335.749 199.301 337.247 203.203 339.816 206.381C342.488 209.435 346.005 211.16 350.366 211.554L369.495 209.791C369.721 209.77 370.218 209.61 370.987 209.312C371.756 209.013 372.31 208.848 372.649 208.817C372.977 208.673 373.469 208.457 374.125 208.169C374.895 207.87 375.495 207.587 375.925 207.32C376.469 207.042 377.063 206.703 377.709 206.302C378.468 205.891 379.677 204.812 381.337 203.065C366.566 189.745 355.079 177.488 346.876 166.293C338.259 175.282 334.407 184.743 335.323 194.674ZM343.305 129.405C343.909 135.951 346.601 142.93 351.381 150.343C357.162 145.143 361.399 140.485 364.092 136.367C366.898 132.238 368.057 127.522 367.568 122.218C367.068 116.801 365.115 113.51 361.707 112.344L350.873 113.343C348.247 114.496 346.229 116.673 344.817 119.876C343.507 122.956 343.003 126.133 343.305 129.405Z" fill="#DDDED6"/>
</svg>
