<svg width="887" height="276" viewBox="0 0 887 276" fill="none" xmlns="http://www.w3.org/2000/svg">
<path d="M762.601 78.5867C762.601 78.5867 768.652 58.723 787.689 57.0008C806.726 55.2785 811.178 74.1922 811.178 74.1922C811.178 74.1922 825.362 46.9523 855.304 50.8836C885.246 54.8149 887 213.815 887 213.815L849.582 217.2C849.579 216.984 848.016 93.9925 836.477 88.6033C824.928 83.2098 817.927 98.3308 817.927 98.3308L828.283 214.298L793.491 217.445C793.493 217.207 794.041 118.186 783.537 108.082C773.021 97.9665 765.133 120.21 765.133 120.21L771.172 219.465L735.724 222.672L724.997 46.3738L760.445 43.1668L762.601 78.5867ZM612.436 19.7859C659.171 -8.40773 720.389 43.0623 713.807 110.484L605.854 131.353C627.551 225.018 699.819 142.778 699.983 142.591C705.917 152.924 720.341 183.422 720.39 183.525C692.085 213.223 676.945 225.098 641.399 222.052C612.625 219.585 593.052 196.368 581.288 164.305C569.524 132.243 565.7 47.9801 612.436 19.7859ZM445 3.69607C445.053 3.68578 523.113 -11.5066 544.903 19.7859C566.701 51.0892 565.309 179.512 544.903 204.394C524.525 229.243 448.422 219.67 448.216 219.644L445 3.69607ZM519.4 74.1717C507.758 56.7189 466.072 65.1742 465.988 65.1912L467.707 185.713C467.741 185.717 508.495 191.082 519.4 177.202C530.31 163.315 531.054 91.6422 519.4 74.1717ZM636.791 49.4832C603.268 50.5317 608.472 105.514 608.486 105.669L676.944 92.0232C676.913 91.8149 670.281 48.4361 636.791 49.4832Z" fill="#3368AE"/>
<path d="M291.82 29.8864C319.501 -9.90187 361.99 -1.12561 407.034 6.67644V81.28C406.952 81.2568 392.296 77.1354 365.837 77.1354C365.837 50.6099 373.518 47.2935 361.647 42.32C304.39 42.32 305.088 102.831 309.976 124.383C314.863 145.935 323.242 167.488 349.776 172.462C376.296 177.432 380.495 148.454 380.5 148.423H361.647V111.121H421V165.83C407.035 208.105 378.206 227.782 344.889 224.683C309.975 217.223 298.105 212.15 280.648 165.83C263.192 119.51 264.14 69.6748 291.82 29.8864ZM87.2451 83.2243L131.425 9.99968H183.03L186 218H131.425V116.123L87.2451 160.163L49.377 120.898V215.347L0.742188 218L0 9.99968H49.377L87.2451 83.2243ZM265 217H210.581L205 9.99968H258.023L265 217Z" fill="#E6B94F"/>
<path d="M390.955 149.703C398.29 149.027 403.745 150.174 407.32 153.146C410.997 155.993 413.023 159.449 413.397 163.511C413.772 167.574 413.546 171.294 412.719 174.671C411.881 177.935 410.879 180.645 409.712 182.801C408.658 184.947 406.738 187.571 403.951 190.673C401.266 193.652 399.186 195.779 397.71 197.053C396.347 198.317 393.877 200.536 390.3 203.711C397.957 213.932 409.13 225.251 423.818 237.668C426.389 233.448 428.59 229.546 430.422 225.962C433.799 226.789 436.381 228.258 438.169 230.37L438.94 231.323C436.104 236.365 433.534 240.585 431.23 243.984C436.653 248.492 441.989 252.667 447.237 256.508L447.44 258.708L437.401 268.341C431.876 263.956 426.878 259.75 422.41 255.723C417.553 261.065 412.648 264.647 407.694 266.47C402.741 268.292 395.975 269.599 387.398 270.389C378.934 271.17 371.678 269.619 365.63 265.738C359.694 261.846 356.336 255.669 355.556 247.204C354.775 238.74 356.192 231.269 359.806 224.79C363.409 218.198 368.67 211.681 375.588 205.238C369.604 195.888 366.269 187.489 365.583 180.04C364.886 172.479 367.109 165.73 372.252 159.793C377.385 153.743 383.619 150.38 390.955 149.703ZM369.323 240.984C369.749 245.611 371.247 249.514 373.816 252.691C376.488 255.746 380.005 257.47 384.366 257.865L403.495 256.101C403.721 256.081 404.218 255.921 404.987 255.622C405.756 255.324 406.31 255.159 406.649 255.128C406.977 254.984 407.469 254.768 408.125 254.479C408.895 254.181 409.495 253.898 409.925 253.631C410.469 253.353 411.063 253.014 411.709 252.613C412.468 252.201 413.677 251.122 415.337 249.376C400.566 236.056 389.079 223.798 380.876 212.604C372.259 221.593 368.407 231.053 369.323 240.984ZM377.305 175.716C377.909 182.262 380.601 189.241 385.381 196.653C391.162 191.454 395.399 186.795 398.092 182.677C400.898 178.549 402.057 173.833 401.568 168.529C401.068 163.112 399.115 159.82 395.707 158.655L384.873 159.654C382.247 160.806 380.229 162.984 378.817 166.187C377.507 169.267 377.003 172.443 377.305 175.716Z" fill="#2C2C2C"/>
</svg>
