<svg width="299" height="215" viewBox="0 0 299 215" fill="none" xmlns="http://www.w3.org/2000/svg">
<path d="M131.783 112.154C131.783 137.073 111.237 157.275 85.8915 157.275C60.5463 157.275 40 137.073 40 112.154C40 87.2336 60.5463 67.032 85.8915 67.032C111.237 67.032 131.783 87.2336 131.783 112.154Z" fill="white"/>
<path d="M216.33 123.856C216.33 161.412 189.259 191.856 155.865 191.856C122.471 191.856 95.3994 161.412 95.3994 123.856C95.3994 86.3009 122.471 55.8562 155.865 55.8562C189.259 55.8562 216.33 86.3009 216.33 123.856Z" fill="white"/>
<path d="M298.868 140.697C298.868 168.952 274.157 191.856 243.674 191.856C213.192 191.856 188.481 168.952 188.481 140.697C188.481 112.443 213.192 89.5385 243.674 89.5385C274.157 89.5385 298.868 112.443 298.868 140.697Z" fill="white"/>
<path d="M182.368 163.137C182.368 191.391 157.657 214.295 127.174 214.295C96.6917 214.295 71.9806 191.391 71.9806 163.137C71.9806 134.882 96.6917 111.978 127.174 111.978C157.657 111.978 182.368 134.882 182.368 163.137Z" fill="white"/>
<path d="M91.7829 156.907C91.7829 181.827 71.2366 202.028 45.8915 202.028C20.5463 202.028 0 181.827 0 156.907C0 131.987 20.5463 111.785 45.8915 111.785C71.2366 111.785 91.7829 131.987 91.7829 156.907Z" fill="white"/>
<mask id="mask0_14_25" style="mask-type:alpha" maskUnits="userSpaceOnUse" x="0" y="55" width="299" height="160">
<path d="M131.783 112.154C131.783 137.073 111.237 157.275 85.8915 157.275C60.5463 157.275 40 137.073 40 112.154C40 87.2336 60.5463 67.032 85.8915 67.032C111.237 67.032 131.783 87.2336 131.783 112.154Z" fill="white"/>
<path d="M216.33 123.856C216.33 161.412 189.259 191.856 155.865 191.856C122.471 191.856 95.3994 161.412 95.3994 123.856C95.3994 86.3009 122.471 55.8562 155.865 55.8562C189.259 55.8562 216.33 86.3009 216.33 123.856Z" fill="white"/>
<path d="M298.868 140.697C298.868 168.952 274.157 191.856 243.674 191.856C213.192 191.856 188.481 168.952 188.481 140.697C188.481 112.443 213.192 89.5385 243.674 89.5385C274.157 89.5385 298.868 112.443 298.868 140.697Z" fill="white"/>
<path d="M182.368 163.137C182.368 191.391 157.657 214.295 127.174 214.295C96.6917 214.295 71.9806 191.391 71.9806 163.137C71.9806 134.882 96.6917 111.978 127.174 111.978C157.657 111.978 182.368 134.882 182.368 163.137Z" fill="white"/>
<path d="M91.7829 156.907C91.7829 181.827 71.2366 202.028 45.8915 202.028C20.5463 202.028 0 181.827 0 156.907C0 131.987 20.5463 111.785 45.8915 111.785C71.2366 111.785 91.7829 131.987 91.7829 156.907Z" fill="white"/>
</mask>
<g mask="url(#mask0_14_25)">
<path d="M-3 139.356C-3 139.356 -3 177.856 28.5 189.856C60 201.856 79.5 178.356 79.5 178.356C79.5 178.356 103.5 210.856 136.5 205.356C169.5 199.856 188 160.856 188 160.856C188 160.856 206.5 184.356 245 184.356C283.5 184.356 308.5 139.356 308.5 139.356L336 285.972L-78.3013 214.856L-3 139.356Z" fill="#7A89C8" fill-opacity="0.81"/>
</g>
<path d="M77.7419 71.8743C90.5311 26.3239 133.329 -2.70099 178.71 0.199045C155.852 26.1024 148.167 64.2136 162.027 99.2617C176.837 136.712 211.982 159.88 249.05 160.499C225.052 190.101 184.924 204.266 145.91 193.307C93.5603 178.602 63.0407 124.235 77.7419 71.8743Z" fill="#B260A8"/>
</svg>
