<svg width="200" height="200" viewBox="0 0 200 200" fill="none" xmlns="http://www.w3.org/2000/svg">
<path d="M110.648 32.7706L130.902 4.8939V39.3508L158.779 19.0981L148.13 51.8693L180.901 41.2214L160.648 69.0981H195.105L167.228 89.3521L200 100L167.228 110.648L195.105 130.902H160.648L180.902 158.779L148.13 148.13L158.779 180.902L130.902 160.648V195.105L110.647 167.229L100 200L89.3515 167.229L69.0981 195.106V160.647L41.2214 180.902L51.8693 148.13L19.0987 158.779L39.3521 130.902H4.89452L32.7712 110.648L0 100L32.7712 89.3515L4.89452 69.0981H39.3521L19.0981 41.2214L51.8693 51.8687L41.2214 19.0981L69.0975 39.3508L69.0981 4.89452L89.3515 32.77L100 0L110.648 32.7706Z" fill="#FDBA21"/>
</svg>
