<svg width="324" height="402" viewBox="0 0 324 402" fill="none" xmlns="http://www.w3.org/2000/svg">
<path d="M159.458 0C182.744 0.000108239 201.621 17.3875 201.621 38.8359C201.621 39.8825 201.574 40.9196 201.485 41.9453C206.947 39.9568 213.125 38.8359 219.667 38.8359C241.899 38.8361 259.922 51.7776 259.922 67.7412C259.922 76.3351 254.696 84.0502 246.405 89.3447C247.898 89.7381 249.383 90.2092 250.851 90.7617C266.821 96.7732 275.835 110.448 273.863 123.715C276.045 124.461 278.213 125.314 280.355 126.275C307.333 138.382 320.026 163.119 308.707 181.527C307.182 184.007 305.298 186.245 303.115 188.232C316.484 195.713 324.752 207.229 323.945 219.758C322.609 240.52 296.859 256.192 266.432 254.763C249.564 253.97 234.802 248.086 225.221 239.464C217.26 245.078 207.192 248.434 196.242 248.434C184.43 248.434 173.645 244.53 165.424 238.097C155.97 249.572 137.96 257.327 117.294 257.327C92.6809 257.327 71.8322 246.331 64.7236 231.145C58.1997 234.958 50.4618 237.168 42.1631 237.168C18.8771 237.168 9.40181e-05 219.781 0 198.332C0 180.704 12.7512 165.822 30.2207 161.078C21.8476 154.253 16.6574 144.776 16.6572 134.297C16.6572 113.562 36.9721 96.7439 62.0762 96.6484C59.6488 90.9255 58.2998 84.6089 58.2998 77.9688C58.2999 52.0996 78.731 31.1281 103.934 31.1279C108.739 31.1279 113.371 31.8932 117.721 33.3066C120.635 14.4773 138.21 0 159.458 0Z" fill="#23823B"/>
<path d="M117.468 231.239C117.468 231.239 134.819 238.65 155.293 238.65C175.768 238.65 188.261 226.199 188.261 226.199L183.402 305.65L188.261 370.427L250.378 397.108H224.178L167.786 386.288H117.468L49.451 402H23.2506L103.76 370.427L117.468 231.239Z" fill="#593622"/>
<path d="M159.458 0C182.744 0.000336107 201.621 17.3876 201.622 38.8359C201.622 39.8825 201.574 40.9196 201.486 41.9453C206.947 39.9569 213.125 38.8359 219.667 38.8359C241.899 38.8363 259.922 51.7777 259.922 67.7412C259.922 76.335 254.697 84.0502 246.406 89.3447C247.899 89.738 249.383 90.2092 250.851 90.7617C266.821 96.7733 275.835 110.448 273.864 123.715C276.045 124.461 278.214 125.314 280.356 126.275C307.333 138.382 320.026 163.119 308.707 181.527C307.183 184.007 305.298 186.245 303.116 188.232C316.485 195.713 324.752 207.23 323.946 219.758C322.609 240.52 296.859 256.192 266.432 254.763C261.976 254.553 257.667 253.984 253.561 253.107C261.545 249.263 268.789 245.906 274.67 243.394C274.766 243.288 296.643 219.282 285.254 174.615C273.847 129.875 234.807 128.961 234.762 128.96C234.778 128.857 240.399 92.4676 227.996 72.6328C215.602 52.814 187.345 55.1312 187.22 55.1416C187.278 55.0921 197.735 46.0468 172.645 26.9775C158.868 16.5069 138.952 16.2591 123.751 18.1777C131.213 7.25745 144.415 0 159.458 0Z" fill="#39AE56"/>
</svg>
