<svg width="323" height="359" viewBox="0 0 323 359" fill="none" xmlns="http://www.w3.org/2000/svg">
<rect y="190.946" width="138.728" height="187.283" transform="rotate(-26.8087 0 190.946)" fill="#B4B4A8"/>
<rect width="127.63" height="187.283" transform="matrix(-0.892518 0.451013 0.451013 0.892518 237.729 70.8154)" fill="#6A838E"/>
<path d="M6.04569 153.695C61.085 111.894 123.817 128.378 123.817 128.378L208.284 295.531C208.284 295.531 143.128 292.706 93.6411 327.04C74.2451 288.656 28.5703 198.27 6.04569 153.695Z" fill="#DFDFD1"/>
<path d="M211.094 54.4147C155.613 68.4295 118.672 130.5 118.672 130.5L203.332 298.034C203.332 298.034 254.192 248.419 301.688 233.765C282.248 195.295 233.669 99.0905 211.094 54.4147Z" fill="#CCDAE0"/>
<rect x="230.925" y="31.2144" width="59" height="151" transform="rotate(18.8683 230.925 31.2144)" fill="#FFE586"/>
<rect x="246.065" y="36.3886" width="43" height="151" transform="rotate(18.8683 246.065 36.3886)" fill="#FCC704"/>
<rect x="268.776" y="44.1501" width="19" height="151" transform="rotate(18.8683 268.776 44.1501)" fill="#C79D02"/>
<path d="M188.846 232.749L191.983 233.821L237.032 193.999C237.032 193.999 241.12 185.154 236.759 182.328C232.397 179.501 225.651 185.211 225.651 185.211C225.651 185.211 221.221 174.791 214.065 172.346C206.91 169.9 198.46 175.919 198.46 175.919C198.46 175.919 195.666 166.948 190.486 166.514C185.307 166.08 181.696 175.088 181.696 175.088L188.846 232.749Z" fill="#FFCE96"/>
<path d="M188.11 232.193L192.11 234.193L210.61 217.193C210.61 217.193 203.816 212.171 199.167 210.582C194.518 208.994 185.61 208.693 185.61 208.693L188.11 232.193Z" fill="black"/>
<path d="M241.338 0.746761C241.338 0.746761 253.136 -2.10174 269.899 3.32796C286.662 8.75766 297.167 19.827 297.167 19.827L284.167 57.8647C284.167 57.8647 275.213 47.3254 256.899 41.3657C238.585 35.406 228.338 38.7845 228.338 38.7845L241.338 0.746761Z" fill="#FF8F8F"/>
<path d="M282.31 10.7314L296.885 20.6518L284.491 56.9184L269.815 47.2928L282.31 10.7314Z" fill="#FF5F5F"/>
<path d="M282.31 10.7314L296.885 20.6518L284.491 56.9184L269.815 47.2928L282.31 10.7314Z" fill="#FF5F5F"/>
<path d="M241.498 0.276217L261.193 1.4008L248.578 38.3118L228.985 36.892L241.498 0.276217Z" fill="#FFB7B7"/>
<path d="M241.498 0.276217L261.193 1.4008L248.578 38.3118L228.985 36.892L241.498 0.276217Z" fill="#FFB7B7"/>
</svg>
